<svg baseProfile="full" height="152" viewBox="0,0,160,160" width="152" xmlns="http://www.w3.org/2000/svg"><path d="M35 19l-26 13 26 13zm3 0l26 13-26 13zm55 0l-26 13 26 13zm3 0l26 13-26 13zm-87 16l26 13-26 13zm55 0l-26 13 26 13zm3 0l26 13-26 13zm55 0l-26 13 26 13zm3 0l26 13-26 13zm-90 16l-26 13 26 13zm58 0l-26 13 26 13zm58 0l-26 13 26 13zm-142 16l26 13-26 13zm58 0l26 13-26 13zm58 0l26 13-26 13zm-90 16l-26 13 26 13zm58 0l-26 13 26 13zm58 0l-26 13 26 13zm-142 16l26 13-26 13zm116 0l26 13-26 13zm26 16l-26 13 26 13z" fill="#fff"/></svg>