<?xml version="1.0" encoding="UTF-8" standalone="no"?>
<!-- Created with Inkscape (http://www.inkscape.org/) -->

<svg
   xmlns:dc="http://purl.org/dc/elements/1.1/"
   xmlns:cc="http://creativecommons.org/ns#"
   xmlns:rdf="http://www.w3.org/1999/02/22-rdf-syntax-ns#"
   xmlns:svg="http://www.w3.org/2000/svg"
   xmlns="http://www.w3.org/2000/svg"
   xmlns:xlink="http://www.w3.org/1999/xlink"
   xmlns:sodipodi="http://sodipodi.sourceforge.net/DTD/sodipodi-0.dtd"
   xmlns:inkscape="http://www.inkscape.org/namespaces/inkscape"
   width="48px"
   height="48px"
   id="svg5832"
   version="1.1"
   inkscape:version="0.48.4 r9939"
   sodipodi:docname="New document 5">
  <defs
     id="defs5834">
    <path
       d="M0,0l8 4l-8,4z"
       fill="#ffffff"
       id="s" />
  </defs>
  <sodipodi:namedview
     id="base"
     pagecolor="#ffffff"
     bordercolor="#666666"
     borderopacity="1.0"
     inkscape:pageopacity="0.0"
     inkscape:pageshadow="2"
     inkscape:zoom="9.8994949"
     inkscape:cx="16.318762"
     inkscape:cy="24.010579"
     inkscape:current-layer="layer2"
     showgrid="true"
     inkscape:grid-bbox="true"
     inkscape:document-units="px"
     inkscape:window-width="1855"
     inkscape:window-height="1056"
     inkscape:window-x="65"
     inkscape:window-y="24"
     inkscape:window-maximized="1" />
  <metadata
     id="metadata5837">
    <rdf:RDF>
      <cc:Work
         rdf:about="">
        <dc:format>image/svg+xml</dc:format>
        <dc:type
           rdf:resource="http://purl.org/dc/dcmitype/StillImage" />
        <dc:title></dc:title>
      </cc:Work>
    </rdf:RDF>
  </metadata>
  <g
     id="layer1"
     inkscape:label="Background"
     inkscape:groupmode="layer"
     sodipodi:insensitive="true">
    <rect
       style="fill:#800000;fill-opacity:1;stroke:none"
       id="rect5840"
       width="48"
       height="48"
       x="0"
       y="-1.7763568e-15" />
  </g>
  <g
     inkscape:groupmode="layer"
     id="layer2"
     inkscape:label="Layer">
    <g
       id="g8678"
       transform="matrix(1.1862042,0,0,1.1862042,-5.1172252,-11.621597)">
      <use
         transform="matrix(0.88235294,0,0,-0.88235294,-1.2352939,39.470588)"
         height="1052.3622"
         width="744.09448"
         style="fill:#ffffff;fill-opacity:1;display:inline"
         x="8.1999998"
         y="-4"
         xlink:href="#s"
         id="use4473" />
      <use
         height="1052.3622"
         width="744.09448"
         style="fill:#ffffff;fill-opacity:1;display:inline"
         x="-16.200001"
         y="0.2"
         transform="matrix(-0.88235294,0,0,-0.88235294,-1.2352939,39.176471)"
         xlink:href="#s"
         id="use4475" />
      <use
         transform="matrix(0.88235294,0,0,-0.88235294,-1.2352939,38.882353)"
         height="1052.3622"
         width="744.09448"
         style="fill:#ffffff;fill-opacity:1;display:inline"
         x="8.1999998"
         y="4.4000001"
         xlink:href="#s"
         id="use4477" />
      <use
         height="1052.3622"
         width="744.09448"
         style="fill:#ffffff;fill-opacity:1;display:inline"
         x="-16.200001"
         y="8.6000004"
         transform="matrix(-0.88235294,0,0,-0.88235294,-1.2352939,38.588236)"
         xlink:href="#s"
         id="use4479" />
      <use
         transform="matrix(0.88235294,0,0,-0.88235294,-1.2352939,38.294118)"
         height="1052.3622"
         width="744.09448"
         style="fill:#ffffff;fill-opacity:1;display:inline"
         x="8.1999998"
         y="12.8"
         xlink:href="#s"
         id="use4481" />
      <use
         height="1052.3622"
         width="744.09448"
         style="fill:#ffffff;fill-opacity:1;display:inline"
         x="-16.200001"
         y="17"
         transform="matrix(-0.88235294,0,0,-0.88235294,-1.2352939,38)"
         xlink:href="#s"
         id="use4483" />
      <use
         height="1052.3622"
         width="744.09448"
         style="fill:#ffffff;fill-opacity:1;display:inline"
         x="-24.4"
         y="12.8"
         transform="matrix(-0.88235294,0,0,-0.88235294,-0.97058788,38.294118)"
         xlink:href="#s"
         id="use4495" />
      <use
         transform="matrix(0.88235294,0,0,-0.88235294,-0.97058788,38)"
         height="1052.3622"
         width="744.09448"
         style="fill:#ffffff;fill-opacity:1;display:inline"
         x="16.4"
         y="17"
         xlink:href="#s"
         id="use4497" />
      <use
         height="1052.3622"
         width="744.09448"
         style="fill:#ffffff;fill-opacity:1;display:inline"
         x="-32.599998"
         y="0.2"
         transform="matrix(-0.88235294,0,0,-0.88235294,-0.70588098,39.176471)"
         xlink:href="#s"
         id="use4503" />
      <use
         transform="matrix(0.88235294,0,0,-0.88235294,-0.70588098,38.882353)"
         height="1052.3622"
         width="744.09448"
         style="fill:#ffffff;fill-opacity:1;display:inline"
         x="24.6"
         y="4.4000001"
         xlink:href="#s"
         id="use4505" />
      <use
         height="1052.3622"
         width="744.09448"
         style="fill:#ffffff;fill-opacity:1;display:inline"
         x="-32.599998"
         y="8.6000004"
         transform="matrix(-0.88235294,0,0,-0.88235294,-0.70588098,38.588236)"
         xlink:href="#s"
         id="use4507" />
      <use
         transform="matrix(0.88235294,0,0,-0.88235294,-0.70588098,38.294118)"
         height="1052.3622"
         width="744.09448"
         style="fill:#ffffff;fill-opacity:1;display:inline"
         x="24.6"
         y="12.8"
         xlink:href="#s"
         id="use4509" />
      <use
         height="1052.3622"
         width="744.09448"
         style="fill:#ffffff;fill-opacity:1;display:inline"
         x="-32.599998"
         y="17"
         transform="matrix(-0.88235294,0,0,-0.88235294,-0.70588098,38)"
         xlink:href="#s"
         id="use4511" />
      <use
         height="1052.3622"
         width="744.09448"
         style="fill:#ffffff;fill-opacity:1;display:inline"
         x="-40.799999"
         y="12.8"
         transform="matrix(-0.88235294,0,0,-0.88235294,-0.44117576,38.294118)"
         xlink:href="#s"
         id="use4523" />
      <use
         transform="matrix(0.88235294,0,0,-0.88235294,-0.44117576,38)"
         height="1052.3622"
         width="744.09448"
         style="fill:#ffffff;fill-opacity:1;display:inline"
         x="32.799999"
         y="17"
         xlink:href="#s"
         id="use4525" />
      <use
         transform="matrix(0.88235294,0,0,-0.88235294,-0.14218588,39.470588)"
         height="1052.3622"
         width="744.09448"
         style="fill:#ffffff;fill-opacity:1;display:inline"
         x="41"
         y="-4"
         xlink:href="#s"
         id="use4529" />
      <use
         height="1052.3622"
         width="744.09448"
         style="fill:#ffffff;fill-opacity:1;display:inline"
         x="-49"
         y="0.2"
         transform="matrix(-0.88235294,0,0,-0.88235294,-0.14218588,39.176471)"
         xlink:href="#s"
         id="use4531" />
      <use
         transform="matrix(0.88235294,0,0,-0.88235294,-0.14218588,38.882353)"
         height="1052.3622"
         width="744.09448"
         style="fill:#ffffff;fill-opacity:1;display:inline"
         x="41"
         y="4.4000001"
         xlink:href="#s"
         id="use4533" />
      <use
         height="1052.3622"
         width="744.09448"
         style="fill:#ffffff;fill-opacity:1;display:inline"
         x="-49"
         y="8.6000004"
         transform="matrix(-0.88235294,0,0,-0.88235294,-0.14218588,38.588236)"
         xlink:href="#s"
         id="use4535" />
      <use
         transform="matrix(0.88235294,0,0,-0.88235294,-0.14218588,38.294118)"
         height="1052.3622"
         width="744.09448"
         style="fill:#ffffff;fill-opacity:1;display:inline"
         x="41"
         y="12.8"
         xlink:href="#s"
         id="use4537" />
      <use
         height="1052.3622"
         width="744.09448"
         style="fill:#ffffff;fill-opacity:1;display:inline"
         x="-32.599998"
         y="17"
         transform="matrix(-0.88235294,0,0,-0.88235294,14.294119,62)"
         xlink:href="#s"
         id="use4511-3" />
    </g>
  </g>
</svg>
