<?xml version="1.0" encoding="utf-8" ?>
<svg baseProfile="full" height="152px" version="1.1" viewBox="0,0,80,80" width="152px" xmlns="http://www.w3.org/2000/svg" xmlns:ev="http://www.w3.org/2001/xml-events" xmlns:xlink="http://www.w3.org/1999/xlink"><defs /><g fill="white"><polygon points="18,10 6,16 18,22" /><polygon points="20,10 32,16 20,22" /><polygon points="46,10 34,16 46,22" /><polygon points="48,10 60,16 48,22" /><polygon points="6,18 18,24 6,30" /><polygon points="32,18 20,24 32,30" /><polygon points="34,18 46,24 34,30" /><polygon points="60,18 48,24 60,30" /><polygon points="62,18 74,24 62,30" /><polygon points="18,26 6,32 18,38" /><polygon points="46,26 34,32 46,38" /><polygon points="74,26 62,32 74,38" /><polygon points="6,34 18,40 6,46" /><polygon points="34,34 46,40 34,46" /><polygon points="62,34 74,40 62,46" /><polygon points="18,42 6,48 18,54" /><polygon points="46,42 34,48 46,54" /><polygon points="74,42 62,48 74,54" /><polygon points="6,50 18,56 6,62" /><polygon points="62,50 74,56 62,62" /><polygon points="74,58 62,64 74,70" /></g></svg>