<?xml version="1.0" encoding="utf-8" ?>
<svg baseProfile="full" height="6cm" version="1.1" viewBox="0,0,132,144" width="5.5cm" xmlns="http://www.w3.org/2000/svg" xmlns:ev="http://www.w3.org/2001/xml-events" xmlns:xlink="http://www.w3.org/1999/xlink"><defs /><polygon fill="rgb(255,255,255)" fill-opacity="0.1" points="10,139 0,144 10,149" /><polygon fill="rgb(255,255,255)" fill-opacity="0.05" points="11,139 21,144 11,149" /><polygon fill="rgb(255,255,255)" fill-opacity="0.15" points="32,139 22,144 32,149" /><polygon fill="rgb(255,255,255)" fill-opacity="0.05" points="33,139 43,144 33,149" /><polygon fill="rgb(255,255,255)" fill-opacity="0.05" points="54,139 44,144 54,149" /><polygon fill="rgb(255,255,255)" fill-opacity="0.1" points="55,139 65,144 55,149" /><polygon fill="rgb(255,255,255)" fill-opacity="0.05" points="76,139 66,144 76,149" /><polygon fill="rgb(255,255,255)" fill-opacity="0.15" points="77,139 87,144 77,149" /><polygon fill="rgb(255,255,255)" fill-opacity="0.1" points="98,139 88,144 98,149" /><polygon fill="rgb(255,255,255)" fill-opacity="0.1" points="99,139 109,144 99,149" /><polygon fill="rgb(255,255,255)" fill-opacity="0.1" points="120,139 110,144 120,149" /><polygon fill="rgb(255,255,255)" fill-opacity="0.1" points="121,139 131,144 121,149" /><polygon fill="rgb(255,255,255)" fill-opacity="0.05" points="0,133 10,138 0,143" /><polygon fill="rgb(255,255,255)" fill-opacity="0.1" points="21,133 11,138 21,143" /><polygon fill="rgb(255,255,255)" fill-opacity="0.05" points="22,133 32,138 22,143" /><polygon fill="rgb(255,255,255)" fill-opacity="0.2" points="43,133 33,138 43,143" /><polygon fill="rgb(255,255,255)" fill-opacity="0.05" points="44,133 54,138 44,143" /><polygon fill="rgb(255,255,255)" fill-opacity="0.15" points="65,133 55,138 65,143" /><polygon fill="rgb(255,255,255)" fill-opacity="0.1" points="66,133 76,138 66,143" /><polygon fill="rgb(255,255,255)" fill-opacity="0.2" points="87,133 77,138 87,143" /><polygon fill="rgb(255,255,255)" fill-opacity="0.15" points="88,133 98,138 88,143" /><polygon fill="rgb(255,255,255)" fill-opacity="0.05" points="109,133 99,138 109,143" /><polygon fill="rgb(255,255,255)" fill-opacity="0.05" points="110,133 120,138 110,143" /><polygon fill="rgb(255,255,255)" fill-opacity="0.1" points="131,133 121,138 131,143" /><polygon fill="rgb(255,255,255)" fill-opacity="0.15" points="10,127 0,132 10,137" /><polygon fill="rgb(255,255,255)" fill-opacity="0.05" points="11,127 21,132 11,137" /><polygon fill="rgb(255,255,255)" fill-opacity="0.15" points="32,127 22,132 32,137" /><polygon fill="rgb(255,255,255)" fill-opacity="0.1" points="33,127 43,132 33,137" /><polygon fill="rgb(255,255,255)" fill-opacity="0.1" points="54,127 44,132 54,137" /><polygon fill="rgb(255,255,255)" fill-opacity="0.15" points="55,127 65,132 55,137" /><polygon fill="rgb(255,255,255)" fill-opacity="0.1" points="76,127 66,132 76,137" /><polygon fill="rgb(255,255,255)" fill-opacity="0.1" points="77,127 87,132 77,137" /><polygon fill="rgb(255,255,255)" fill-opacity="0.1" points="98,127 88,132 98,137" /><polygon fill="rgb(255,255,255)" fill-opacity="0.2" points="99,127 109,132 99,137" /><polygon fill="rgb(255,255,255)" fill-opacity="0.05" points="120,127 110,132 120,137" /><polygon fill="rgb(255,255,255)" fill-opacity="0.05" points="121,127 131,132 121,137" /><polygon fill="rgb(255,255,255)" fill-opacity="0.1" points="0,121 10,126 0,131" /><polygon fill="rgb(255,255,255)" fill-opacity="0.2" points="21,121 11,126 21,131" /><polygon fill="rgb(255,255,255)" fill-opacity="0.1" points="22,121 32,126 22,131" /><polygon fill="rgb(255,255,255)" fill-opacity="0.15" points="43,121 33,126 43,131" /><polygon fill="rgb(255,255,255)" fill-opacity="0.15" points="44,121 54,126 44,131" /><polygon fill="rgb(255,255,255)" fill-opacity="0.05" points="65,121 55,126 65,131" /><polygon fill="rgb(255,255,255)" fill-opacity="0.15" points="66,121 76,126 66,131" /><polygon fill="rgb(255,255,255)" fill-opacity="0.05" points="87,121 77,126 87,131" /><polygon fill="rgb(255,255,255)" fill-opacity="0.15" points="88,121 98,126 88,131" /><polygon fill="rgb(255,255,255)" fill-opacity="0.2" points="109,121 99,126 109,131" /><polygon fill="rgb(255,255,255)" fill-opacity="0.1" points="110,121 120,126 110,131" /><polygon fill="rgb(255,255,255)" fill-opacity="0.1" points="131,121 121,126 131,131" /><polygon fill="rgb(255,255,255)" fill-opacity="0.1" points="10,115 0,120 10,125" /><polygon fill="rgb(255,255,255)" fill-opacity="0.1" points="11,115 21,120 11,125" /><polygon fill="rgb(255,255,255)" fill-opacity="0.1" points="32,115 22,120 32,125" /><polygon fill="rgb(255,255,255)" fill-opacity="0.2" points="33,115 43,120 33,125" /><polygon fill="rgb(255,255,255)" fill-opacity="0.1" points="54,115 44,120 54,125" /><polygon fill="rgb(255,255,255)" fill-opacity="0.1" points="55,115 65,120 55,125" /><polygon fill="rgb(255,255,255)" fill-opacity="0.2" points="76,115 66,120 76,125" /><polygon fill="rgb(255,255,255)" fill-opacity="0.05" points="77,115 87,120 77,125" /><polygon fill="rgb(255,255,255)" fill-opacity="0.2" points="98,115 88,120 98,125" /><polygon fill="rgb(255,255,255)" fill-opacity="0.1" points="99,115 109,120 99,125" /><polygon fill="rgb(255,255,255)" fill-opacity="0.1" points="120,115 110,120 120,125" /><polygon fill="rgb(255,255,255)" fill-opacity="0.05" points="121,115 131,120 121,125" /><polygon fill="rgb(255,255,255)" fill-opacity="0.1" points="0,109 10,114 0,119" /><polygon fill="rgb(255,255,255)" fill-opacity="0.15" points="21,109 11,114 21,119" /><polygon fill="rgb(255,255,255)" fill-opacity="0.2" points="22,109 32,114 22,119" /><polygon fill="rgb(255,255,255)" fill-opacity="0.1" points="43,109 33,114 43,119" /><polygon fill="rgb(255,255,255)" fill-opacity="0.1" points="44,109 54,114 44,119" /><polygon fill="rgb(255,255,255)" fill-opacity="0.05" points="65,109 55,114 65,119" /><polygon fill="rgb(255,255,255)" fill-opacity="0.15" points="66,109 76,114 66,119" /><polygon fill="rgb(255,255,255)" fill-opacity="0.2" points="87,109 77,114 87,119" /><polygon fill="rgb(255,255,255)" fill-opacity="0.2" points="88,109 98,114 88,119" /><polygon fill="rgb(255,255,255)" fill-opacity="0.1" points="109,109 99,114 109,119" /><polygon fill="rgb(255,255,255)" fill-opacity="0.15" points="110,109 120,114 110,119" /><polygon fill="rgb(255,255,255)" fill-opacity="0.1" points="131,109 121,114 131,119" /><polygon fill="rgb(255,255,255)" fill-opacity="0.1" points="10,103 0,108 10,113" /><polygon fill="rgb(255,255,255)" fill-opacity="0.05" points="11,103 21,108 11,113" /><polygon fill="rgb(255,255,255)" fill-opacity="0.15" points="32,103 22,108 32,113" /><polygon fill="rgb(255,255,255)" fill-opacity="0.1" points="33,103 43,108 33,113" /><polygon fill="rgb(255,255,255)" fill-opacity="0.1" points="54,103 44,108 54,113" /><polygon fill="rgb(255,255,255)" fill-opacity="0.2" points="55,103 65,108 55,113" /><polygon fill="rgb(255,255,255)" fill-opacity="0.15" points="76,103 66,108 76,113" /><polygon fill="rgb(255,255,255)" fill-opacity="0.15" points="77,103 87,108 77,113" /><polygon fill="rgb(255,255,255)" fill-opacity="0.1" points="98,103 88,108 98,113" /><polygon fill="rgb(255,255,255)" fill-opacity="0.15" points="99,103 109,108 99,113" /><polygon fill="rgb(255,255,255)" fill-opacity="0.05" points="120,103 110,108 120,113" /><polygon fill="rgb(255,255,255)" fill-opacity="0.2" points="121,103 131,108 121,113" /><polygon fill="rgb(255,255,255)" fill-opacity="0.1" points="0,97 10,102 0,107" /><polygon fill="rgb(255,255,255)" fill-opacity="0.05" points="21,97 11,102 21,107" /><polygon fill="rgb(255,255,255)" fill-opacity="0.05" points="22,97 32,102 22,107" /><polygon fill="rgb(255,255,255)" fill-opacity="0.1" points="43,97 33,102 43,107" /><polygon fill="rgb(255,255,255)" fill-opacity="0.1" points="44,97 54,102 44,107" /><polygon fill="rgb(255,255,255)" fill-opacity="0.15" points="65,97 55,102 65,107" /><polygon fill="rgb(255,255,255)" fill-opacity="0.05" points="66,97 76,102 66,107" /><polygon fill="rgb(255,255,255)" fill-opacity="0.15" points="87,97 77,102 87,107" /><polygon fill="rgb(255,255,255)" fill-opacity="0.05" points="88,97 98,102 88,107" /><polygon fill="rgb(255,255,255)" fill-opacity="0.05" points="109,97 99,102 109,107" /><polygon fill="rgb(255,255,255)" fill-opacity="0.1" points="110,97 120,102 110,107" /><polygon fill="rgb(255,255,255)" fill-opacity="0.2" points="131,97 121,102 131,107" /><polygon fill="rgb(255,255,255)" fill-opacity="0.15" points="10,91 0,96 10,101" /><polygon fill="rgb(255,255,255)" fill-opacity="0.2" points="11,91 21,96 11,101" /><polygon fill="rgb(255,255,255)" fill-opacity="0.1" points="32,91 22,96 32,101" /><polygon fill="rgb(255,255,255)" fill-opacity="0.15" points="33,91 43,96 33,101" /><polygon fill="rgb(255,255,255)" fill-opacity="0.1" points="54,91 44,96 54,101" /><polygon fill="rgb(255,255,255)" fill-opacity="0.1" points="55,91 65,96 55,101" /><polygon fill="rgb(255,255,255)" fill-opacity="0.2" points="76,91 66,96 76,101" /><polygon fill="rgb(255,255,255)" fill-opacity="0.15" points="77,91 87,96 77,101" /><polygon fill="rgb(255,255,255)" fill-opacity="0.1" points="98,91 88,96 98,101" /><polygon fill="rgb(255,255,255)" fill-opacity="0.2" points="99,91 109,96 99,101" /><polygon fill="rgb(255,255,255)" fill-opacity="0.2" points="120,91 110,96 120,101" /><polygon fill="rgb(255,255,255)" fill-opacity="0.1" points="121,91 131,96 121,101" /><polygon fill="rgb(255,255,255)" fill-opacity="0.15" points="0,85 10,90 0,95" /><polygon fill="rgb(255,255,255)" fill-opacity="0.2" points="21,85 11,90 21,95" /><polygon fill="rgb(255,255,255)" fill-opacity="0.2" points="22,85 32,90 22,95" /><polygon fill="rgb(255,255,255)" fill-opacity="0.05" points="43,85 33,90 43,95" /><polygon fill="rgb(255,255,255)" fill-opacity="0.15" points="44,85 54,90 44,95" /><polygon fill="rgb(255,255,255)" fill-opacity="0.2" points="65,85 55,90 65,95" /><polygon fill="rgb(255,255,255)" fill-opacity="0.05" points="66,85 76,90 66,95" /><polygon fill="rgb(255,255,255)" fill-opacity="0.15" points="87,85 77,90 87,95" /><polygon fill="rgb(255,255,255)" fill-opacity="0.05" points="88,85 98,90 88,95" /><polygon fill="rgb(255,255,255)" fill-opacity="0.1" points="109,85 99,90 109,95" /><polygon fill="rgb(255,255,255)" fill-opacity="0.1" points="110,85 120,90 110,95" /><polygon fill="rgb(255,255,255)" fill-opacity="0.15" points="131,85 121,90 131,95" /><polygon fill="rgb(255,255,255)" fill-opacity="0.2" points="10,79 0,84 10,89" /><polygon fill="rgb(255,255,255)" fill-opacity="0.15" points="11,79 21,84 11,89" /><polygon fill="rgb(255,255,255)" fill-opacity="0.1" points="32,79 22,84 32,89" /><polygon fill="rgb(255,255,255)" fill-opacity="0.2" points="33,79 43,84 33,89" /><polygon fill="rgb(255,255,255)" fill-opacity="0.05" points="54,79 44,84 54,89" /><polygon fill="rgb(255,255,255)" fill-opacity="0.15" points="55,79 65,84 55,89" /><polygon fill="rgb(255,255,255)" fill-opacity="0.05" points="76,79 66,84 76,89" /><polygon fill="rgb(255,255,255)" fill-opacity="0.1" points="77,79 87,84 77,89" /><polygon fill="rgb(255,255,255)" fill-opacity="0.05" points="98,79 88,84 98,89" /><polygon fill="rgb(255,255,255)" fill-opacity="0.15" points="99,79 109,84 99,89" /><polygon fill="rgb(255,255,255)" fill-opacity="0.1" points="120,79 110,84 120,89" /><polygon fill="rgb(255,255,255)" fill-opacity="0.05" points="121,79 131,84 121,89" /><polygon fill="rgb(255,255,255)" fill-opacity="0.05" points="0,73 10,78 0,83" /><polygon fill="rgb(255,255,255)" fill-opacity="0.05" points="21,73 11,78 21,83" /><polygon fill="rgb(255,255,255)" fill-opacity="0.2" points="22,73 32,78 22,83" /><polygon fill="rgb(255,255,255)" fill-opacity="0.15" points="43,73 33,78 43,83" /><polygon fill="rgb(255,255,255)" fill-opacity="0.2" points="44,73 54,78 44,83" /><polygon fill="rgb(255,255,255)" fill-opacity="0.15" points="65,73 55,78 65,83" /><polygon fill="rgb(255,255,255)" fill-opacity="0.2" points="66,73 76,78 66,83" /><polygon fill="rgb(255,255,255)" fill-opacity="0.05" points="87,73 77,78 87,83" /><polygon fill="rgb(255,255,255)" fill-opacity="0.1" points="88,73 98,78 88,83" /><polygon fill="rgb(255,255,255)" fill-opacity="0.05" points="109,73 99,78 109,83" /><polygon fill="rgb(255,255,255)" fill-opacity="0.05" points="110,73 120,78 110,83" /><polygon fill="rgb(255,255,255)" fill-opacity="0.05" points="131,73 121,78 131,83" /><polygon fill="rgb(255,255,255)" fill-opacity="0.05" points="10,67 0,72 10,77" /><polygon fill="rgb(255,255,255)" fill-opacity="0.1" points="11,67 21,72 11,77" /><polygon fill="rgb(255,255,255)" fill-opacity="0.15" points="32,67 22,72 32,77" /><polygon fill="rgb(255,255,255)" fill-opacity="0.1" points="33,67 43,72 33,77" /><polygon fill="rgb(255,255,255)" fill-opacity="0.1" points="54,67 44,72 54,77" /><polygon fill="rgb(255,255,255)" fill-opacity="0.2" points="55,67 65,72 55,77" /><polygon fill="rgb(255,255,255)" fill-opacity="0.2" points="76,67 66,72 76,77" /><polygon fill="rgb(255,255,255)" fill-opacity="0.1" points="77,67 87,72 77,77" /><polygon fill="rgb(255,255,255)" fill-opacity="0.2" points="98,67 88,72 98,77" /><polygon fill="rgb(255,255,255)" fill-opacity="0.15" points="99,67 109,72 99,77" /><polygon fill="rgb(255,255,255)" fill-opacity="0.05" points="120,67 110,72 120,77" /><polygon fill="rgb(255,255,255)" fill-opacity="0.15" points="121,67 131,72 121,77" /><polygon fill="rgb(255,255,255)" fill-opacity="0.2" points="0,61 10,66 0,71" /><polygon fill="rgb(255,255,255)" fill-opacity="0.05" points="21,61 11,66 21,71" /><polygon fill="rgb(255,255,255)" fill-opacity="0.2" points="22,61 32,66 22,71" /><polygon fill="rgb(255,255,255)" fill-opacity="0.2" points="43,61 33,66 43,71" /><polygon fill="rgb(255,255,255)" fill-opacity="0.15" points="44,61 54,66 44,71" /><polygon fill="rgb(255,255,255)" fill-opacity="0.05" points="65,61 55,66 65,71" /><polygon fill="rgb(255,255,255)" fill-opacity="0.2" points="66,61 76,66 66,71" /><polygon fill="rgb(255,255,255)" fill-opacity="0.2" points="87,61 77,66 87,71" /><polygon fill="rgb(255,255,255)" fill-opacity="0.2" points="88,61 98,66 88,71" /><polygon fill="rgb(255,255,255)" fill-opacity="0.05" points="109,61 99,66 109,71" /><polygon fill="rgb(255,255,255)" fill-opacity="0.2" points="110,61 120,66 110,71" /><polygon fill="rgb(255,255,255)" fill-opacity="0.2" points="131,61 121,66 131,71" /><polygon fill="rgb(255,255,255)" fill-opacity="0.15" points="10,55 0,60 10,65" /><polygon fill="rgb(255,255,255)" fill-opacity="0.15" points="11,55 21,60 11,65" /><polygon fill="rgb(255,255,255)" fill-opacity="0.1" points="32,55 22,60 32,65" /><polygon fill="rgb(255,255,255)" fill-opacity="0.2" points="33,55 43,60 33,65" /><polygon fill="rgb(255,255,255)" fill-opacity="0.2" points="54,55 44,60 54,65" /><polygon fill="rgb(255,255,255)" fill-opacity="0.05" points="55,55 65,60 55,65" /><polygon fill="rgb(255,255,255)" fill-opacity="0.05" points="76,55 66,60 76,65" /><polygon fill="rgb(255,255,255)" fill-opacity="0.1" points="77,55 87,60 77,65" /><polygon fill="rgb(255,255,255)" fill-opacity="0.05" points="98,55 88,60 98,65" /><polygon fill="rgb(255,255,255)" fill-opacity="0.05" points="99,55 109,60 99,65" /><polygon fill="rgb(255,255,255)" fill-opacity="0.15" points="120,55 110,60 120,65" /><polygon fill="rgb(255,255,255)" fill-opacity="0.15" points="121,55 131,60 121,65" /><polygon fill="rgb(255,255,255)" fill-opacity="0.05" points="0,49 10,54 0,59" /><polygon fill="rgb(255,255,255)" fill-opacity="0.1" points="21,49 11,54 21,59" /><polygon fill="rgb(255,255,255)" fill-opacity="0.15" points="22,49 32,54 22,59" /><polygon fill="rgb(255,255,255)" fill-opacity="0.15" points="43,49 33,54 43,59" /><polygon fill="rgb(255,255,255)" fill-opacity="0.15" points="44,49 54,54 44,59" /><polygon fill="rgb(255,255,255)" fill-opacity="0.1" points="65,49 55,54 65,59" /><polygon fill="rgb(255,255,255)" fill-opacity="0.1" points="66,49 76,54 66,59" /><polygon fill="rgb(255,255,255)" fill-opacity="0.05" points="87,49 77,54 87,59" /><polygon fill="rgb(255,255,255)" fill-opacity="0.05" points="88,49 98,54 88,59" /><polygon fill="rgb(255,255,255)" fill-opacity="0.1" points="109,49 99,54 109,59" /><polygon fill="rgb(255,255,255)" fill-opacity="0.15" points="110,49 120,54 110,59" /><polygon fill="rgb(255,255,255)" fill-opacity="0.15" points="131,49 121,54 131,59" /><polygon fill="rgb(255,255,255)" fill-opacity="0.1" points="10,43 0,48 10,53" /><polygon fill="rgb(255,255,255)" fill-opacity="0.2" points="11,43 21,48 11,53" /><polygon fill="rgb(255,255,255)" fill-opacity="0.15" points="32,43 22,48 32,53" /><polygon fill="rgb(255,255,255)" fill-opacity="0.15" points="33,43 43,48 33,53" /><polygon fill="rgb(255,255,255)" fill-opacity="0.15" points="54,43 44,48 54,53" /><polygon fill="rgb(255,255,255)" fill-opacity="0.1" points="55,43 65,48 55,53" /><polygon fill="rgb(255,255,255)" fill-opacity="0.05" points="76,43 66,48 76,53" /><polygon fill="rgb(255,255,255)" fill-opacity="0.2" points="77,43 87,48 77,53" /><polygon fill="rgb(255,255,255)" fill-opacity="0.2" points="98,43 88,48 98,53" /><polygon fill="rgb(255,255,255)" fill-opacity="0.2" points="99,43 109,48 99,53" /><polygon fill="rgb(255,255,255)" fill-opacity="0.1" points="120,43 110,48 120,53" /><polygon fill="rgb(255,255,255)" fill-opacity="0.05" points="121,43 131,48 121,53" /><polygon fill="rgb(255,255,255)" fill-opacity="0.05" points="0,37 10,42 0,47" /><polygon fill="rgb(255,255,255)" fill-opacity="0.2" points="21,37 11,42 21,47" /><polygon fill="rgb(255,255,255)" fill-opacity="0.1" points="22,37 32,42 22,47" /><polygon fill="rgb(255,255,255)" fill-opacity="0.2" points="43,37 33,42 43,47" /><polygon fill="rgb(255,255,255)" fill-opacity="0.15" points="44,37 54,42 44,47" /><polygon fill="rgb(255,255,255)" fill-opacity="0.1" points="65,37 55,42 65,47" /><polygon fill="rgb(255,255,255)" fill-opacity="0.2" points="66,37 76,42 66,47" /><polygon fill="rgb(255,255,255)" fill-opacity="0.2" points="87,37 77,42 87,47" /><polygon fill="rgb(255,255,255)" fill-opacity="0.1" points="88,37 98,42 88,47" /><polygon fill="rgb(255,255,255)" fill-opacity="0.15" points="109,37 99,42 109,47" /><polygon fill="rgb(255,255,255)" fill-opacity="0.05" points="110,37 120,42 110,47" /><polygon fill="rgb(255,255,255)" fill-opacity="0.15" points="131,37 121,42 131,47" /><polygon fill="rgb(255,255,255)" fill-opacity="0.1" points="10,31 0,36 10,41" /><polygon fill="rgb(255,255,255)" fill-opacity="0.2" points="11,31 21,36 11,41" /><polygon fill="rgb(255,255,255)" fill-opacity="0.1" points="32,31 22,36 32,41" /><polygon fill="rgb(255,255,255)" fill-opacity="0.15" points="33,31 43,36 33,41" /><polygon fill="rgb(255,255,255)" fill-opacity="0.05" points="54,31 44,36 54,41" /><polygon fill="rgb(255,255,255)" fill-opacity="0.2" points="55,31 65,36 55,41" /><polygon fill="rgb(255,255,255)" fill-opacity="0.05" points="76,31 66,36 76,41" /><polygon fill="rgb(255,255,255)" fill-opacity="0.1" points="77,31 87,36 77,41" /><polygon fill="rgb(255,255,255)" fill-opacity="0.05" points="98,31 88,36 98,41" /><polygon fill="rgb(255,255,255)" fill-opacity="0.2" points="99,31 109,36 99,41" /><polygon fill="rgb(255,255,255)" fill-opacity="0.2" points="120,31 110,36 120,41" /><polygon fill="rgb(255,255,255)" fill-opacity="0.15" points="121,31 131,36 121,41" /><polygon fill="rgb(255,255,255)" fill-opacity="0.2" points="0,25 10,30 0,35" /><polygon fill="rgb(255,255,255)" fill-opacity="0.05" points="21,25 11,30 21,35" /><polygon fill="rgb(255,255,255)" fill-opacity="0.05" points="22,25 32,30 22,35" /><polygon fill="rgb(255,255,255)" fill-opacity="0.05" points="43,25 33,30 43,35" /><polygon fill="rgb(255,255,255)" fill-opacity="0.05" points="44,25 54,30 44,35" /><polygon fill="rgb(255,255,255)" fill-opacity="0.05" points="65,25 55,30 65,35" /><polygon fill="rgb(255,255,255)" fill-opacity="0.1" points="66,25 76,30 66,35" /><polygon fill="rgb(255,255,255)" fill-opacity="0.1" points="87,25 77,30 87,35" /><polygon fill="rgb(255,255,255)" fill-opacity="0.05" points="88,25 98,30 88,35" /><polygon fill="rgb(255,255,255)" fill-opacity="0.1" points="109,25 99,30 109,35" /><polygon fill="rgb(255,255,255)" fill-opacity="0.2" points="110,25 120,30 110,35" /><polygon fill="rgb(255,255,255)" fill-opacity="0.05" points="131,25 121,30 131,35" /><polygon fill="rgb(255,255,255)" fill-opacity="0.15" points="10,19 0,24 10,29" /><polygon fill="rgb(255,255,255)" fill-opacity="0.1" points="11,19 21,24 11,29" /><polygon fill="rgb(255,255,255)" fill-opacity="0.1" points="32,19 22,24 32,29" /><polygon fill="rgb(255,255,255)" fill-opacity="0.2" points="33,19 43,24 33,29" /><polygon fill="rgb(255,255,255)" fill-opacity="0.2" points="54,19 44,24 54,29" /><polygon fill="rgb(255,255,255)" fill-opacity="0.2" points="55,19 65,24 55,29" /><polygon fill="rgb(255,255,255)" fill-opacity="0.1" points="76,19 66,24 76,29" /><polygon fill="rgb(255,255,255)" fill-opacity="0.05" points="77,19 87,24 77,29" /><polygon fill="rgb(255,255,255)" fill-opacity="0.1" points="98,19 88,24 98,29" /><polygon fill="rgb(255,255,255)" fill-opacity="0.2" points="99,19 109,24 99,29" /><polygon fill="rgb(255,255,255)" fill-opacity="0.15" points="120,19 110,24 120,29" /><polygon fill="rgb(255,255,255)" fill-opacity="0.15" points="121,19 131,24 121,29" /><polygon fill="rgb(255,255,255)" fill-opacity="0.2" points="0,13 10,18 0,23" /><polygon fill="rgb(255,255,255)" fill-opacity="0.05" points="21,13 11,18 21,23" /><polygon fill="rgb(255,255,255)" fill-opacity="0.05" points="22,13 32,18 22,23" /><polygon fill="rgb(255,255,255)" fill-opacity="0.15" points="43,13 33,18 43,23" /><polygon fill="rgb(255,255,255)" fill-opacity="0.05" points="44,13 54,18 44,23" /><polygon fill="rgb(255,255,255)" fill-opacity="0.05" points="65,13 55,18 65,23" /><polygon fill="rgb(255,255,255)" fill-opacity="0.1" points="66,13 76,18 66,23" /><polygon fill="rgb(255,255,255)" fill-opacity="0.15" points="87,13 77,18 87,23" /><polygon fill="rgb(255,255,255)" fill-opacity="0.2" points="88,13 98,18 88,23" /><polygon fill="rgb(255,255,255)" fill-opacity="0.15" points="109,13 99,18 109,23" /><polygon fill="rgb(255,255,255)" fill-opacity="0.15" points="110,13 120,18 110,23" /><polygon fill="rgb(255,255,255)" fill-opacity="0.05" points="131,13 121,18 131,23" /><polygon fill="rgb(255,255,255)" fill-opacity="0.15" points="10,7 0,12 10,17" /><polygon fill="rgb(255,255,255)" fill-opacity="0.15" points="11,7 21,12 11,17" /><polygon fill="rgb(255,255,255)" fill-opacity="0.1" points="32,7 22,12 32,17" /><polygon fill="rgb(255,255,255)" fill-opacity="0.1" points="33,7 43,12 33,17" /><polygon fill="rgb(255,255,255)" fill-opacity="0.15" points="54,7 44,12 54,17" /><polygon fill="rgb(255,255,255)" fill-opacity="0.05" points="55,7 65,12 55,17" /><polygon fill="rgb(255,255,255)" fill-opacity="0.2" points="76,7 66,12 76,17" /><polygon fill="rgb(255,255,255)" fill-opacity="0.15" points="77,7 87,12 77,17" /><polygon fill="rgb(255,255,255)" fill-opacity="0.1" points="98,7 88,12 98,17" /><polygon fill="rgb(255,255,255)" fill-opacity="0.05" points="99,7 109,12 99,17" /><polygon fill="rgb(255,255,255)" fill-opacity="0.2" points="120,7 110,12 120,17" /><polygon fill="rgb(255,255,255)" fill-opacity="0.05" points="121,7 131,12 121,17" /><polygon fill="rgb(255,255,255)" fill-opacity="0.2" points="0,1 10,6 0,11" /><polygon fill="rgb(255,255,255)" fill-opacity="0.1" points="21,1 11,6 21,11" /><polygon fill="rgb(255,255,255)" fill-opacity="0.15" points="22,1 32,6 22,11" /><polygon fill="rgb(255,255,255)" fill-opacity="0.1" points="43,1 33,6 43,11" /><polygon fill="rgb(255,255,255)" fill-opacity="0.05" points="44,1 54,6 44,11" /><polygon fill="rgb(255,255,255)" fill-opacity="0.1" points="65,1 55,6 65,11" /><polygon fill="rgb(255,255,255)" fill-opacity="0.15" points="66,1 76,6 66,11" /><polygon fill="rgb(255,255,255)" fill-opacity="0.2" points="87,1 77,6 87,11" /><polygon fill="rgb(255,255,255)" fill-opacity="0.15" points="88,1 98,6 88,11" /><polygon fill="rgb(255,255,255)" fill-opacity="0.15" points="109,1 99,6 109,11" /><polygon fill="rgb(255,255,255)" fill-opacity="0.1" points="110,1 120,6 110,11" /><polygon fill="rgb(255,255,255)" fill-opacity="0.15" points="131,1 121,6 131,11" /><polygon fill="rgb(255,255,255)" fill-opacity="0.1" points="10,-5 0,0 10,5" /><polygon fill="rgb(255,255,255)" fill-opacity="0.05" points="11,-5 21,0 11,5" /><polygon fill="rgb(255,255,255)" fill-opacity="0.15" points="32,-5 22,0 32,5" /><polygon fill="rgb(255,255,255)" fill-opacity="0.05" points="33,-5 43,0 33,5" /><polygon fill="rgb(255,255,255)" fill-opacity="0.05" points="54,-5 44,0 54,5" /><polygon fill="rgb(255,255,255)" fill-opacity="0.1" points="55,-5 65,0 55,5" /><polygon fill="rgb(255,255,255)" fill-opacity="0.05" points="76,-5 66,0 76,5" /><polygon fill="rgb(255,255,255)" fill-opacity="0.15" points="77,-5 87,0 77,5" /><polygon fill="rgb(255,255,255)" fill-opacity="0.1" points="98,-5 88,0 98,5" /><polygon fill="rgb(255,255,255)" fill-opacity="0.1" points="99,-5 109,0 99,5" /><polygon fill="rgb(255,255,255)" fill-opacity="0.1" points="120,-5 110,0 120,5" /><polygon fill="rgb(255,255,255)" fill-opacity="0.1" points="121,-5 131,0 121,5" /></svg>