<svg baseProfile="full" height="6cm" viewBox="0,0,132,144" width="5.5cm" xmlns="http://www.w3.org/2000/svg"><g fill="#fff" fill-opacity=".05"><path d="M10 139l-10 5 10 5zM55 139l10 5-10 5zM77 139l10 5-10 5zM120 139l-10 5 10 5zM44 133l10 5-10 5zM66 133l10 5-10 5zM88 133l10 5-10 5zM109 133l-10 5 10 5zM131 133l-10 5 10 5zM54 127l-10 5 10 5zM121 127l10 5-10 5zM22 121l10 5-10 5zM10 115l-10 5 10 5zM11 115l10 5-10 5zM33 115l10 5-10 5zM76 115l-10 5 10 5zM77 115l10 5-10 5zM98 115l-10 5 10 5zM120 115l-10 5 10 5zM22 109l10 5-10 5zM109 109l-10 5 10 5zM131 109l-10 5 10 5zM10 103l-10 5 10 5zM98 103l-10 5 10 5zM99 103l10 5-10 5zM21 97l-10 5 10 5zM65 97l-10 5 10 5zM33 91l10 5-10 5zM54 91l-10 5 10 5zM121 91l10 5-10 5zM0 85l10 5-10 5zM110 85l10 5-10 5zM131 85l-10 5 10 5zM76 79l-10 5 10 5zM77 79l10 5-10 5zM99 79l10 5-10 5zM120 79l-10 5 10 5zM21 73l-10 5 10 5zM55 67l10 5-10 5zM99 67l10 5-10 5zM121 67l10 5-10 5zM0 61l10 5-10 5zM44 61l10 5-10 5zM87 61l-10 5 10 5zM33 55l10 5-10 5zM54 55l-10 5 10 5zM55 55l10 5-10 5zM44 49l10 5-10 5zM109 49l-10 5 10 5zM11 43l10 5-10 5zM32 43l-10 5 10 5zM33 43l10 5-10 5zM10 31l-10 5 10 5zM99 31l10 5-10 5zM121 31l10 5-10 5zM65 25l-10 5 10 5zM109 25l-10 5 10 5zM131 25l-10 5 10 5zM32 19l-10 5 10 5zM66 13l10 5-10 5zM87 13l-10 5 10 5zM110 13l10 5-10 5zM131 13l-10 5 10 5zM10 7l-10 5 10 5zM11 7l10 5-10 5zM77 7l10 5-10 5zM99 7l10 5-10 5zM21 1l-10 5 10 5zM22 1l10 5-10 5zM109 1l-10 5 10 5zM10-5l-10 5 10 5zM55-5l10 5-10 5zM77-5l10 5-10 5zM120-5l-10 5 10 5z"/></g><g fill="#fff" fill-opacity=".1"><path d="M11 139l10 5-10 5zM32 139l-10 5 10 5zM54 139l-10 5 10 5zM0 133l10 5-10 5zM21 133l-10 5 10 5zM22 133l10 5-10 5zM65 133l-10 5 10 5zM87 133l-10 5 10 5zM110 133l10 5-10 5zM32 127l-10 5 10 5zM33 127l10 5-10 5zM55 127l10 5-10 5zM76 127l-10 5 10 5zM77 127l10 5-10 5zM98 127l-10 5 10 5zM120 127l-10 5 10 5zM0 121l10 5-10 5zM131 121l-10 5 10 5zM99 115l10 5-10 5zM0 109l10 5-10 5zM110 109l10 5-10 5zM33 103l10 5-10 5zM0 97l10 5-10 5zM22 97l10 5-10 5zM43 97l-10 5 10 5zM66 97l10 5-10 5zM10 91l-10 5 10 5zM11 91l10 5-10 5zM120 91l-10 5 10 5zM22 85l10 5-10 5zM43 85l-10 5 10 5zM66 85l10 5-10 5zM88 85l10 5-10 5zM10 79l-10 5 10 5zM33 79l10 5-10 5zM55 79l10 5-10 5zM0 73l10 5-10 5zM44 73l10 5-10 5zM65 73l-10 5 10 5zM66 73l10 5-10 5zM110 73l10 5-10 5zM131 73l-10 5 10 5zM32 67l-10 5 10 5zM76 67l-10 5 10 5zM120 67l-10 5 10 5zM21 61l-10 5 10 5zM22 61l10 5-10 5zM88 61l10 5-10 5zM110 61l10 5-10 5zM98 55l-10 5 10 5zM120 55l-10 5 10 5zM43 49l-10 5 10 5zM65 49l-10 5 10 5zM66 49l10 5-10 5zM88 49l10 5-10 5zM110 49l10 5-10 5zM77 43l10 5-10 5zM98 43l-10 5 10 5zM99 43l10 5-10 5zM120 43l-10 5 10 5zM88 37l10 5-10 5zM110 37l10 5-10 5zM131 37l-10 5 10 5zM33 31l10 5-10 5zM54 31l-10 5 10 5zM55 31l10 5-10 5zM77 31l10 5-10 5zM22 25l10 5-10 5zM43 25l-10 5 10 5zM88 25l10 5-10 5zM11 19l10 5-10 5zM55 19l10 5-10 5zM0 13l10 5-10 5zM44 13l10 5-10 5zM88 13l10 5-10 5zM32 7l-10 5 10 5zM33 7l10 5-10 5zM54 7l-10 5 10 5zM98 7l-10 5 10 5zM0 1l10 5-10 5zM44 1l10 5-10 5zM65 1l-10 5 10 5zM87 1l-10 5 10 5zM131 1l-10 5 10 5zM11-5l10 5-10 5zM32-5l-10 5 10 5zM54-5l-10 5 10 5z"/></g><g fill="#fff" fill-opacity=".15"><path d="M33 139l10 5-10 5zM98 139l-10 5 10 5zM99 139l10 5-10 5zM43 133l-10 5 10 5zM21 121l-10 5 10 5zM44 121l10 5-10 5zM66 121l10 5-10 5zM109 121l-10 5 10 5zM121 115l10 5-10 5zM21 109l-10 5 10 5zM43 109l-10 5 10 5zM65 109l-10 5 10 5zM32 103l-10 5 10 5zM54 103l-10 5 10 5zM55 103l10 5-10 5zM76 103l-10 5 10 5zM77 103l10 5-10 5zM120 103l-10 5 10 5zM44 97l10 5-10 5zM88 97l10 5-10 5zM110 97l10 5-10 5zM76 91l-10 5 10 5zM98 91l-10 5 10 5zM99 91l10 5-10 5zM21 85l-10 5 10 5zM65 85l-10 5 10 5zM87 85l-10 5 10 5zM109 85l-10 5 10 5zM11 79l10 5-10 5zM98 79l-10 5 10 5zM22 73l10 5-10 5zM87 73l-10 5 10 5zM88 73l10 5-10 5zM109 73l-10 5 10 5zM10 67l-10 5 10 5zM11 67l10 5-10 5zM33 67l10 5-10 5zM10 55l-10 5 10 5zM11 55l10 5-10 5zM32 55l-10 5 10 5zM76 55l-10 5 10 5zM77 55l10 5-10 5zM0 49l10 5-10 5zM22 49l10 5-10 5zM76 43l-10 5 10 5zM121 43l10 5-10 5zM0 37l10 5-10 5zM21 37l-10 5 10 5zM65 37l-10 5 10 5zM66 37l10 5-10 5zM11 31l10 5-10 5zM32 31l-10 5 10 5zM98 31l-10 5 10 5zM120 31l-10 5 10 5zM0 25l10 5-10 5zM21 25l-10 5 10 5zM44 25l10 5-10 5zM66 25l10 5-10 5zM87 25l-10 5 10 5zM110 25l10 5-10 5zM10 19l-10 5 10 5zM33 19l10 5-10 5zM54 19l-10 5 10 5zM99 19l10 5-10 5zM120 19l-10 5 10 5zM121 19l10 5-10 5zM21 13l-10 5 10 5zM65 13l-10 5 10 5zM109 13l-10 5 10 5zM55 7l10 5-10 5zM120 7l-10 5 10 5zM121 7l10 5-10 5zM43 1l-10 5 10 5zM33-5l10 5-10 5zM98-5l-10 5 10 5zM99-5l10 5-10 5z"/></g><g fill="#fff" fill-opacity=".2"><path d="M76 139l-10 5 10 5zM121 139l10 5-10 5zM10 127l-10 5 10 5zM11 127l10 5-10 5zM99 127l10 5-10 5zM43 121l-10 5 10 5zM65 121l-10 5 10 5zM87 121l-10 5 10 5zM88 121l10 5-10 5zM110 121l10 5-10 5zM32 115l-10 5 10 5zM54 115l-10 5 10 5zM55 115l10 5-10 5zM44 109l10 5-10 5zM66 109l10 5-10 5zM87 109l-10 5 10 5zM88 109l10 5-10 5zM11 103l10 5-10 5zM121 103l10 5-10 5zM87 97l-10 5 10 5zM109 97l-10 5 10 5zM131 97l-10 5 10 5zM32 91l-10 5 10 5zM55 91l10 5-10 5zM77 91l10 5-10 5zM44 85l10 5-10 5zM32 79l-10 5 10 5zM54 79l-10 5 10 5zM121 79l10 5-10 5zM43 73l-10 5 10 5zM54 67l-10 5 10 5zM77 67l10 5-10 5zM98 67l-10 5 10 5zM43 61l-10 5 10 5zM65 61l-10 5 10 5zM66 61l10 5-10 5zM109 61l-10 5 10 5zM131 61l-10 5 10 5zM99 55l10 5-10 5zM121 55l10 5-10 5zM21 49l-10 5 10 5zM87 49l-10 5 10 5zM131 49l-10 5 10 5zM10 43l-10 5 10 5zM54 43l-10 5 10 5zM55 43l10 5-10 5zM22 37l10 5-10 5zM43 37l-10 5 10 5zM44 37l10 5-10 5zM87 37l-10 5 10 5zM109 37l-10 5 10 5zM76 31l-10 5 10 5zM76 19l-10 5 10 5zM77 19l10 5-10 5zM98 19l-10 5 10 5zM22 13l10 5-10 5zM43 13l-10 5 10 5zM76 7l-10 5 10 5zM66 1l10 5-10 5zM88 1l10 5-10 5zM110 1l10 5-10 5zM76-5l-10 5 10 5zM121-5l10 5-10 5z"/></g></svg>