<?xml version="1.0" encoding="utf-8" ?>
<svg baseProfile="full" height="2048px" version="1.1" viewBox="0,0,55,60" width="2048px" xmlns="http://www.w3.org/2000/svg" xmlns:ev="http://www.w3.org/2001/xml-events" xmlns:xlink="http://www.w3.org/1999/xlink"><defs /><g fill="white"><polygon points="10,7 0,12 10,17" /><polygon points="11,7 21,12 11,17" /><polygon points="32,7 22,12 32,17" /><polygon points="33,7 43,12 33,17" /><polygon points="0,13 10,18 0,23" /><polygon points="21,13 11,18 21,23" /><polygon points="22,13 32,18 22,23" /><polygon points="43,13 33,18 43,23" /><polygon points="44,13 54,18 44,23" /><polygon points="10,19 0,24 10,29" /><polygon points="32,19 22,24 32,29" /><polygon points="54,19 44,24 54,29" /><polygon points="0,25 10,30 0,35" /><polygon points="22,25 32,30 22,35" /><polygon points="44,25 54,30 44,35" /><polygon points="10,31 0,36 10,41" /><polygon points="32,31 22,36 32,41" /><polygon points="54,31 44,36 54,41" /><polygon points="0,37 10,42 0,47" /><polygon points="44,37 54,42 44,47" /><polygon points="54,43 44,48 54,53" /></g></svg>