<svg baseProfile="full" height="2048" viewBox="0,0,55,60" width="2048" xmlns="http://www.w3.org/2000/svg"><g fill="#fff"><path d="M10 7l-10 5 10 5zM11 7l10 5-10 5zM32 7l-10 5 10 5zM33 7l10 5-10 5zM0 13l10 5-10 5zM21 13l-10 5 10 5zM22 13l10 5-10 5zM43 13l-10 5 10 5zM44 13l10 5-10 5zM10 19l-10 5 10 5zM32 19l-10 5 10 5zM54 19l-10 5 10 5zM0 25l10 5-10 5zM22 25l10 5-10 5zM44 25l10 5-10 5zM10 31l-10 5 10 5zM32 31l-10 5 10 5zM54 31l-10 5 10 5zM0 37l10 5-10 5zM44 37l10 5-10 5zM54 43l-10 5 10 5z"/></g></svg>