<?xml version="1.0" encoding="utf-8" ?>
<svg baseProfile="full" height="6cm" version="1.1" viewBox="0,0,144,144" width="6cm" xmlns="http://www.w3.org/2000/svg" xmlns:ev="http://www.w3.org/2001/xml-events" xmlns:xlink="http://www.w3.org/1999/xlink"><defs /><rect fill="rgb(227,227,227)" height="5" width="5" x="0" y="0" /><rect fill="rgb(248,248,248)" height="5" width="5" x="0" y="18" /><rect fill="rgb(227,227,227)" height="5" width="5" x="0" y="24" /><rect fill="rgb(236,236,236)" height="5" width="5" x="0" y="30" /><rect fill="rgb(236,236,236)" height="5" width="5" x="0" y="36" /><rect fill="rgb(236,236,236)" height="5" width="5" x="0" y="42" /><rect fill="rgb(248,248,248)" height="5" width="5" x="0" y="48" /><rect fill="rgb(240,240,240)" height="5" width="5" x="0" y="60" /><rect fill="rgb(240,240,240)" height="5" width="5" x="0" y="66" /><rect fill="rgb(236,236,236)" height="5" width="5" x="0" y="72" /><rect fill="rgb(240,240,240)" height="5" width="5" x="0" y="84" /><rect fill="rgb(248,248,248)" height="5" width="5" x="0" y="90" /><rect fill="rgb(248,248,248)" height="5" width="5" x="0" y="96" /><rect fill="rgb(236,236,236)" height="5" width="5" x="0" y="108" /><rect fill="rgb(236,236,236)" height="5" width="5" x="0" y="114" /><rect fill="rgb(227,227,227)" height="5" width="5" x="0" y="126" /><rect fill="rgb(240,240,240)" height="5" width="5" x="0" y="132" /><rect fill="rgb(240,240,240)" height="5" width="5" x="0" y="138" /><rect fill="rgb(227,227,227)" height="5" width="5" x="6" y="6" /><rect fill="rgb(227,227,227)" height="5" width="5" x="6" y="12" /><rect fill="rgb(248,248,248)" height="5" width="5" x="6" y="18" /><rect fill="rgb(236,236,236)" height="5" width="5" x="6" y="30" /><rect fill="rgb(236,236,236)" height="5" width="5" x="6" y="48" /><rect fill="rgb(227,227,227)" height="5" width="5" x="6" y="54" /><rect fill="rgb(236,236,236)" height="5" width="5" x="6" y="60" /><rect fill="rgb(236,236,236)" height="5" width="5" x="6" y="66" /><rect fill="rgb(240,240,240)" height="5" width="5" x="6" y="78" /><rect fill="rgb(248,248,248)" height="5" width="5" x="6" y="84" /><rect fill="rgb(240,240,240)" height="5" width="5" x="6" y="90" /><rect fill="rgb(240,240,240)" height="5" width="5" x="6" y="102" /><rect fill="rgb(227,227,227)" height="5" width="5" x="6" y="108" /><rect fill="rgb(236,236,236)" height="5" width="5" x="6" y="114" /><rect fill="rgb(227,227,227)" height="5" width="5" x="6" y="120" /><rect fill="rgb(240,240,240)" height="5" width="5" x="6" y="138" /><rect fill="rgb(236,236,236)" height="5" width="5" x="12" y="0" /><rect fill="rgb(236,236,236)" height="5" width="5" x="12" y="6" /><rect fill="rgb(227,227,227)" height="5" width="5" x="12" y="12" /><rect fill="rgb(236,236,236)" height="5" width="5" x="12" y="18" /><rect fill="rgb(227,227,227)" height="5" width="5" x="12" y="24" /><rect fill="rgb(227,227,227)" height="5" width="5" x="12" y="30" /><rect fill="rgb(227,227,227)" height="5" width="5" x="12" y="36" /><rect fill="rgb(248,248,248)" height="5" width="5" x="12" y="42" /><rect fill="rgb(227,227,227)" height="5" width="5" x="12" y="54" /><rect fill="rgb(248,248,248)" height="5" width="5" x="12" y="66" /><rect fill="rgb(240,240,240)" height="5" width="5" x="12" y="72" /><rect fill="rgb(240,240,240)" height="5" width="5" x="12" y="78" /><rect fill="rgb(240,240,240)" height="5" width="5" x="12" y="90" /><rect fill="rgb(236,236,236)" height="5" width="5" x="12" y="96" /><rect fill="rgb(236,236,236)" height="5" width="5" x="12" y="102" /><rect fill="rgb(248,248,248)" height="5" width="5" x="12" y="108" /><rect fill="rgb(240,240,240)" height="5" width="5" x="12" y="114" /><rect fill="rgb(227,227,227)" height="5" width="5" x="12" y="126" /><rect fill="rgb(248,248,248)" height="5" width="5" x="12" y="132" /><rect fill="rgb(248,248,248)" height="5" width="5" x="12" y="138" /><rect fill="rgb(227,227,227)" height="5" width="5" x="18" y="0" /><rect fill="rgb(248,248,248)" height="5" width="5" x="18" y="12" /><rect fill="rgb(240,240,240)" height="5" width="5" x="18" y="24" /><rect fill="rgb(236,236,236)" height="5" width="5" x="18" y="30" /><rect fill="rgb(227,227,227)" height="5" width="5" x="18" y="36" /><rect fill="rgb(240,240,240)" height="5" width="5" x="18" y="42" /><rect fill="rgb(248,248,248)" height="5" width="5" x="18" y="54" /><rect fill="rgb(227,227,227)" height="5" width="5" x="18" y="60" /><rect fill="rgb(236,236,236)" height="5" width="5" x="18" y="66" /><rect fill="rgb(248,248,248)" height="5" width="5" x="18" y="72" /><rect fill="rgb(240,240,240)" height="5" width="5" x="18" y="78" /><rect fill="rgb(236,236,236)" height="5" width="5" x="18" y="84" /><rect fill="rgb(227,227,227)" height="5" width="5" x="18" y="90" /><rect fill="rgb(248,248,248)" height="5" width="5" x="18" y="96" /><rect fill="rgb(227,227,227)" height="5" width="5" x="18" y="102" /><rect fill="rgb(236,236,236)" height="5" width="5" x="18" y="108" /><rect fill="rgb(240,240,240)" height="5" width="5" x="18" y="114" /><rect fill="rgb(227,227,227)" height="5" width="5" x="18" y="120" /><rect fill="rgb(236,236,236)" height="5" width="5" x="18" y="126" /><rect fill="rgb(227,227,227)" height="5" width="5" x="18" y="132" /><rect fill="rgb(236,236,236)" height="5" width="5" x="18" y="138" /><rect fill="rgb(227,227,227)" height="5" width="5" x="24" y="0" /><rect fill="rgb(240,240,240)" height="5" width="5" x="24" y="6" /><rect fill="rgb(227,227,227)" height="5" width="5" x="24" y="12" /><rect fill="rgb(227,227,227)" height="5" width="5" x="24" y="18" /><rect fill="rgb(248,248,248)" height="5" width="5" x="24" y="24" /><rect fill="rgb(236,236,236)" height="5" width="5" x="24" y="30" /><rect fill="rgb(240,240,240)" height="5" width="5" x="24" y="36" /><rect fill="rgb(248,248,248)" height="5" width="5" x="24" y="42" /><rect fill="rgb(227,227,227)" height="5" width="5" x="24" y="48" /><rect fill="rgb(236,236,236)" height="5" width="5" x="24" y="54" /><rect fill="rgb(240,240,240)" height="5" width="5" x="24" y="66" /><rect fill="rgb(227,227,227)" height="5" width="5" x="24" y="72" /><rect fill="rgb(227,227,227)" height="5" width="5" x="24" y="78" /><rect fill="rgb(248,248,248)" height="5" width="5" x="24" y="84" /><rect fill="rgb(240,240,240)" height="5" width="5" x="24" y="90" /><rect fill="rgb(240,240,240)" height="5" width="5" x="24" y="96" /><rect fill="rgb(248,248,248)" height="5" width="5" x="24" y="102" /><rect fill="rgb(236,236,236)" height="5" width="5" x="24" y="114" /><rect fill="rgb(227,227,227)" height="5" width="5" x="24" y="126" /><rect fill="rgb(240,240,240)" height="5" width="5" x="24" y="132" /><rect fill="rgb(236,236,236)" height="5" width="5" x="24" y="138" /><rect fill="rgb(236,236,236)" height="5" width="5" x="30" y="0" /><rect fill="rgb(240,240,240)" height="5" width="5" x="30" y="6" /><rect fill="rgb(227,227,227)" height="5" width="5" x="30" y="12" /><rect fill="rgb(248,248,248)" height="5" width="5" x="30" y="18" /><rect fill="rgb(227,227,227)" height="5" width="5" x="30" y="36" /><rect fill="rgb(240,240,240)" height="5" width="5" x="30" y="42" /><rect fill="rgb(248,248,248)" height="5" width="5" x="30" y="48" /><rect fill="rgb(227,227,227)" height="5" width="5" x="30" y="54" /><rect fill="rgb(240,240,240)" height="5" width="5" x="30" y="60" /><rect fill="rgb(236,236,236)" height="5" width="5" x="30" y="66" /><rect fill="rgb(248,248,248)" height="5" width="5" x="30" y="72" /><rect fill="rgb(248,248,248)" height="5" width="5" x="30" y="78" /><rect fill="rgb(248,248,248)" height="5" width="5" x="30" y="84" /><rect fill="rgb(227,227,227)" height="5" width="5" x="30" y="90" /><rect fill="rgb(227,227,227)" height="5" width="5" x="30" y="96" /><rect fill="rgb(240,240,240)" height="5" width="5" x="30" y="102" /><rect fill="rgb(240,240,240)" height="5" width="5" x="30" y="108" /><rect fill="rgb(227,227,227)" height="5" width="5" x="30" y="114" /><rect fill="rgb(240,240,240)" height="5" width="5" x="30" y="120" /><rect fill="rgb(248,248,248)" height="5" width="5" x="30" y="126" /><rect fill="rgb(227,227,227)" height="5" width="5" x="30" y="132" /><rect fill="rgb(240,240,240)" height="5" width="5" x="30" y="138" /><rect fill="rgb(236,236,236)" height="5" width="5" x="36" y="0" /><rect fill="rgb(227,227,227)" height="5" width="5" x="36" y="6" /><rect fill="rgb(248,248,248)" height="5" width="5" x="36" y="12" /><rect fill="rgb(248,248,248)" height="5" width="5" x="36" y="18" /><rect fill="rgb(248,248,248)" height="5" width="5" x="36" y="24" /><rect fill="rgb(236,236,236)" height="5" width="5" x="36" y="30" /><rect fill="rgb(236,236,236)" height="5" width="5" x="36" y="36" /><rect fill="rgb(227,227,227)" height="5" width="5" x="36" y="42" /><rect fill="rgb(240,240,240)" height="5" width="5" x="36" y="54" /><rect fill="rgb(240,240,240)" height="5" width="5" x="36" y="60" /><rect fill="rgb(236,236,236)" height="5" width="5" x="36" y="66" /><rect fill="rgb(227,227,227)" height="5" width="5" x="36" y="72" /><rect fill="rgb(240,240,240)" height="5" width="5" x="36" y="78" /><rect fill="rgb(236,236,236)" height="5" width="5" x="36" y="84" /><rect fill="rgb(240,240,240)" height="5" width="5" x="36" y="90" /><rect fill="rgb(227,227,227)" height="5" width="5" x="36" y="96" /><rect fill="rgb(248,248,248)" height="5" width="5" x="36" y="102" /><rect fill="rgb(236,236,236)" height="5" width="5" x="36" y="108" /><rect fill="rgb(240,240,240)" height="5" width="5" x="36" y="114" /><rect fill="rgb(227,227,227)" height="5" width="5" x="36" y="120" /><rect fill="rgb(240,240,240)" height="5" width="5" x="36" y="132" /><rect fill="rgb(227,227,227)" height="5" width="5" x="42" y="6" /><rect fill="rgb(236,236,236)" height="5" width="5" x="42" y="18" /><rect fill="rgb(248,248,248)" height="5" width="5" x="42" y="30" /><rect fill="rgb(227,227,227)" height="5" width="5" x="42" y="36" /><rect fill="rgb(240,240,240)" height="5" width="5" x="42" y="42" /><rect fill="rgb(227,227,227)" height="5" width="5" x="42" y="48" /><rect fill="rgb(236,236,236)" height="5" width="5" x="42" y="54" /><rect fill="rgb(248,248,248)" height="5" width="5" x="42" y="66" /><rect fill="rgb(240,240,240)" height="5" width="5" x="42" y="72" /><rect fill="rgb(240,240,240)" height="5" width="5" x="42" y="78" /><rect fill="rgb(248,248,248)" height="5" width="5" x="42" y="84" /><rect fill="rgb(236,236,236)" height="5" width="5" x="42" y="90" /><rect fill="rgb(248,248,248)" height="5" width="5" x="42" y="96" /><rect fill="rgb(240,240,240)" height="5" width="5" x="42" y="102" /><rect fill="rgb(227,227,227)" height="5" width="5" x="42" y="114" /><rect fill="rgb(248,248,248)" height="5" width="5" x="42" y="120" /><rect fill="rgb(236,236,236)" height="5" width="5" x="42" y="126" /><rect fill="rgb(227,227,227)" height="5" width="5" x="42" y="132" /><rect fill="rgb(236,236,236)" height="5" width="5" x="42" y="138" /><rect fill="rgb(227,227,227)" height="5" width="5" x="48" y="0" /><rect fill="rgb(240,240,240)" height="5" width="5" x="48" y="18" /><rect fill="rgb(227,227,227)" height="5" width="5" x="48" y="24" /><rect fill="rgb(240,240,240)" height="5" width="5" x="48" y="30" /><rect fill="rgb(240,240,240)" height="5" width="5" x="48" y="36" /><rect fill="rgb(236,236,236)" height="5" width="5" x="48" y="42" /><rect fill="rgb(236,236,236)" height="5" width="5" x="48" y="48" /><rect fill="rgb(248,248,248)" height="5" width="5" x="48" y="54" /><rect fill="rgb(240,240,240)" height="5" width="5" x="48" y="60" /><rect fill="rgb(248,248,248)" height="5" width="5" x="48" y="66" /><rect fill="rgb(236,236,236)" height="5" width="5" x="48" y="72" /><rect fill="rgb(227,227,227)" height="5" width="5" x="48" y="78" /><rect fill="rgb(236,236,236)" height="5" width="5" x="48" y="84" /><rect fill="rgb(227,227,227)" height="5" width="5" x="48" y="96" /><rect fill="rgb(236,236,236)" height="5" width="5" x="48" y="102" /><rect fill="rgb(240,240,240)" height="5" width="5" x="48" y="108" /><rect fill="rgb(248,248,248)" height="5" width="5" x="48" y="114" /><rect fill="rgb(236,236,236)" height="5" width="5" x="48" y="120" /><rect fill="rgb(248,248,248)" height="5" width="5" x="48" y="126" /><rect fill="rgb(227,227,227)" height="5" width="5" x="48" y="132" /><rect fill="rgb(248,248,248)" height="5" width="5" x="54" y="0" /><rect fill="rgb(236,236,236)" height="5" width="5" x="54" y="6" /><rect fill="rgb(248,248,248)" height="5" width="5" x="54" y="12" /><rect fill="rgb(248,248,248)" height="5" width="5" x="54" y="30" /><rect fill="rgb(240,240,240)" height="5" width="5" x="54" y="36" /><rect fill="rgb(227,227,227)" height="5" width="5" x="54" y="42" /><rect fill="rgb(227,227,227)" height="5" width="5" x="54" y="54" /><rect fill="rgb(240,240,240)" height="5" width="5" x="54" y="60" /><rect fill="rgb(240,240,240)" height="5" width="5" x="54" y="66" /><rect fill="rgb(227,227,227)" height="5" width="5" x="54" y="72" /><rect fill="rgb(248,248,248)" height="5" width="5" x="54" y="78" /><rect fill="rgb(248,248,248)" height="5" width="5" x="54" y="90" /><rect fill="rgb(236,236,236)" height="5" width="5" x="54" y="96" /><rect fill="rgb(240,240,240)" height="5" width="5" x="54" y="102" /><rect fill="rgb(240,240,240)" height="5" width="5" x="54" y="108" /><rect fill="rgb(236,236,236)" height="5" width="5" x="54" y="114" /><rect fill="rgb(227,227,227)" height="5" width="5" x="54" y="120" /><rect fill="rgb(240,240,240)" height="5" width="5" x="54" y="132" /><rect fill="rgb(236,236,236)" height="5" width="5" x="54" y="138" /><rect fill="rgb(248,248,248)" height="5" width="5" x="60" y="0" /><rect fill="rgb(236,236,236)" height="5" width="5" x="60" y="18" /><rect fill="rgb(236,236,236)" height="5" width="5" x="60" y="24" /><rect fill="rgb(240,240,240)" height="5" width="5" x="60" y="30" /><rect fill="rgb(227,227,227)" height="5" width="5" x="60" y="42" /><rect fill="rgb(236,236,236)" height="5" width="5" x="60" y="48" /><rect fill="rgb(227,227,227)" height="5" width="5" x="60" y="54" /><rect fill="rgb(240,240,240)" height="5" width="5" x="60" y="60" /><rect fill="rgb(236,236,236)" height="5" width="5" x="60" y="66" /><rect fill="rgb(236,236,236)" height="5" width="5" x="60" y="78" /><rect fill="rgb(248,248,248)" height="5" width="5" x="60" y="84" /><rect fill="rgb(248,248,248)" height="5" width="5" x="60" y="90" /><rect fill="rgb(248,248,248)" height="5" width="5" x="60" y="96" /><rect fill="rgb(248,248,248)" height="5" width="5" x="60" y="108" /><rect fill="rgb(248,248,248)" height="5" width="5" x="60" y="114" /><rect fill="rgb(240,240,240)" height="5" width="5" x="60" y="120" /><rect fill="rgb(227,227,227)" height="5" width="5" x="60" y="126" /><rect fill="rgb(236,236,236)" height="5" width="5" x="60" y="132" /><rect fill="rgb(227,227,227)" height="5" width="5" x="66" y="0" /><rect fill="rgb(240,240,240)" height="5" width="5" x="66" y="6" /><rect fill="rgb(227,227,227)" height="5" width="5" x="66" y="12" /><rect fill="rgb(236,236,236)" height="5" width="5" x="66" y="18" /><rect fill="rgb(240,240,240)" height="5" width="5" x="66" y="24" /><rect fill="rgb(227,227,227)" height="5" width="5" x="66" y="30" /><rect fill="rgb(248,248,248)" height="5" width="5" x="66" y="48" /><rect fill="rgb(236,236,236)" height="5" width="5" x="66" y="60" /><rect fill="rgb(236,236,236)" height="5" width="5" x="66" y="66" /><rect fill="rgb(240,240,240)" height="5" width="5" x="66" y="72" /><rect fill="rgb(236,236,236)" height="5" width="5" x="66" y="78" /><rect fill="rgb(240,240,240)" height="5" width="5" x="66" y="84" /><rect fill="rgb(236,236,236)" height="5" width="5" x="66" y="90" /><rect fill="rgb(236,236,236)" height="5" width="5" x="66" y="96" /><rect fill="rgb(236,236,236)" height="5" width="5" x="66" y="102" /><rect fill="rgb(248,248,248)" height="5" width="5" x="66" y="108" /><rect fill="rgb(236,236,236)" height="5" width="5" x="66" y="114" /><rect fill="rgb(248,248,248)" height="5" width="5" x="66" y="120" /><rect fill="rgb(227,227,227)" height="5" width="5" x="66" y="126" /><rect fill="rgb(236,236,236)" height="5" width="5" x="66" y="132" /><rect fill="rgb(248,248,248)" height="5" width="5" x="66" y="138" /><rect fill="rgb(240,240,240)" height="5" width="5" x="72" y="0" /><rect fill="rgb(227,227,227)" height="5" width="5" x="72" y="6" /><rect fill="rgb(240,240,240)" height="5" width="5" x="72" y="12" /><rect fill="rgb(248,248,248)" height="5" width="5" x="72" y="18" /><rect fill="rgb(236,236,236)" height="5" width="5" x="72" y="24" /><rect fill="rgb(227,227,227)" height="5" width="5" x="72" y="30" /><rect fill="rgb(227,227,227)" height="5" width="5" x="72" y="36" /><rect fill="rgb(236,236,236)" height="5" width="5" x="72" y="42" /><rect fill="rgb(248,248,248)" height="5" width="5" x="72" y="54" /><rect fill="rgb(240,240,240)" height="5" width="5" x="72" y="66" /><rect fill="rgb(248,248,248)" height="5" width="5" x="72" y="78" /><rect fill="rgb(248,248,248)" height="5" width="5" x="72" y="84" /><rect fill="rgb(248,248,248)" height="5" width="5" x="72" y="90" /><rect fill="rgb(248,248,248)" height="5" width="5" x="72" y="102" /><rect fill="rgb(240,240,240)" height="5" width="5" x="72" y="108" /><rect fill="rgb(227,227,227)" height="5" width="5" x="72" y="114" /><rect fill="rgb(236,236,236)" height="5" width="5" x="72" y="126" /><rect fill="rgb(236,236,236)" height="5" width="5" x="72" y="132" /><rect fill="rgb(248,248,248)" height="5" width="5" x="72" y="138" /><rect fill="rgb(236,236,236)" height="5" width="5" x="78" y="6" /><rect fill="rgb(236,236,236)" height="5" width="5" x="78" y="12" /><rect fill="rgb(227,227,227)" height="5" width="5" x="78" y="18" /><rect fill="rgb(236,236,236)" height="5" width="5" x="78" y="24" /><rect fill="rgb(240,240,240)" height="5" width="5" x="78" y="36" /><rect fill="rgb(236,236,236)" height="5" width="5" x="78" y="42" /><rect fill="rgb(248,248,248)" height="5" width="5" x="78" y="48" /><rect fill="rgb(227,227,227)" height="5" width="5" x="78" y="60" /><rect fill="rgb(240,240,240)" height="5" width="5" x="78" y="66" /><rect fill="rgb(240,240,240)" height="5" width="5" x="78" y="72" /><rect fill="rgb(248,248,248)" height="5" width="5" x="78" y="84" /><rect fill="rgb(227,227,227)" height="5" width="5" x="78" y="90" /><rect fill="rgb(240,240,240)" height="5" width="5" x="78" y="96" /><rect fill="rgb(227,227,227)" height="5" width="5" x="78" y="102" /><rect fill="rgb(236,236,236)" height="5" width="5" x="78" y="108" /><rect fill="rgb(240,240,240)" height="5" width="5" x="78" y="114" /><rect fill="rgb(236,236,236)" height="5" width="5" x="78" y="120" /><rect fill="rgb(240,240,240)" height="5" width="5" x="78" y="126" /><rect fill="rgb(248,248,248)" height="5" width="5" x="78" y="132" /><rect fill="rgb(240,240,240)" height="5" width="5" x="84" y="0" /><rect fill="rgb(227,227,227)" height="5" width="5" x="84" y="6" /><rect fill="rgb(227,227,227)" height="5" width="5" x="84" y="12" /><rect fill="rgb(236,236,236)" height="5" width="5" x="84" y="24" /><rect fill="rgb(236,236,236)" height="5" width="5" x="84" y="36" /><rect fill="rgb(227,227,227)" height="5" width="5" x="84" y="42" /><rect fill="rgb(248,248,248)" height="5" width="5" x="84" y="48" /><rect fill="rgb(240,240,240)" height="5" width="5" x="84" y="54" /><rect fill="rgb(240,240,240)" height="5" width="5" x="84" y="60" /><rect fill="rgb(227,227,227)" height="5" width="5" x="84" y="72" /><rect fill="rgb(240,240,240)" height="5" width="5" x="84" y="96" /><rect fill="rgb(227,227,227)" height="5" width="5" x="84" y="102" /><rect fill="rgb(236,236,236)" height="5" width="5" x="84" y="108" /><rect fill="rgb(236,236,236)" height="5" width="5" x="84" y="114" /><rect fill="rgb(236,236,236)" height="5" width="5" x="84" y="120" /><rect fill="rgb(227,227,227)" height="5" width="5" x="84" y="132" /><rect fill="rgb(227,227,227)" height="5" width="5" x="90" y="0" /><rect fill="rgb(248,248,248)" height="5" width="5" x="90" y="6" /><rect fill="rgb(236,236,236)" height="5" width="5" x="90" y="12" /><rect fill="rgb(248,248,248)" height="5" width="5" x="90" y="24" /><rect fill="rgb(227,227,227)" height="5" width="5" x="90" y="30" /><rect fill="rgb(236,236,236)" height="5" width="5" x="90" y="36" /><rect fill="rgb(240,240,240)" height="5" width="5" x="90" y="42" /><rect fill="rgb(240,240,240)" height="5" width="5" x="90" y="48" /><rect fill="rgb(236,236,236)" height="5" width="5" x="90" y="54" /><rect fill="rgb(227,227,227)" height="5" width="5" x="90" y="60" /><rect fill="rgb(240,240,240)" height="5" width="5" x="90" y="66" /><rect fill="rgb(248,248,248)" height="5" width="5" x="90" y="72" /><rect fill="rgb(240,240,240)" height="5" width="5" x="90" y="78" /><rect fill="rgb(248,248,248)" height="5" width="5" x="90" y="90" /><rect fill="rgb(240,240,240)" height="5" width="5" x="90" y="96" /><rect fill="rgb(227,227,227)" height="5" width="5" x="90" y="102" /><rect fill="rgb(227,227,227)" height="5" width="5" x="90" y="108" /><rect fill="rgb(240,240,240)" height="5" width="5" x="90" y="120" /><rect fill="rgb(240,240,240)" height="5" width="5" x="90" y="126" /><rect fill="rgb(227,227,227)" height="5" width="5" x="90" y="132" /><rect fill="rgb(227,227,227)" height="5" width="5" x="90" y="138" /><rect fill="rgb(248,248,248)" height="5" width="5" x="96" y="0" /><rect fill="rgb(227,227,227)" height="5" width="5" x="96" y="6" /><rect fill="rgb(248,248,248)" height="5" width="5" x="96" y="18" /><rect fill="rgb(248,248,248)" height="5" width="5" x="96" y="24" /><rect fill="rgb(227,227,227)" height="5" width="5" x="96" y="30" /><rect fill="rgb(236,236,236)" height="5" width="5" x="96" y="36" /><rect fill="rgb(248,248,248)" height="5" width="5" x="96" y="42" /><rect fill="rgb(248,248,248)" height="5" width="5" x="96" y="48" /><rect fill="rgb(248,248,248)" height="5" width="5" x="96" y="60" /><rect fill="rgb(248,248,248)" height="5" width="5" x="96" y="72" /><rect fill="rgb(248,248,248)" height="5" width="5" x="96" y="78" /><rect fill="rgb(240,240,240)" height="5" width="5" x="96" y="96" /><rect fill="rgb(240,240,240)" height="5" width="5" x="96" y="102" /><rect fill="rgb(236,236,236)" height="5" width="5" x="96" y="108" /><rect fill="rgb(236,236,236)" height="5" width="5" x="96" y="120" /><rect fill="rgb(240,240,240)" height="5" width="5" x="96" y="126" /><rect fill="rgb(240,240,240)" height="5" width="5" x="96" y="132" /><rect fill="rgb(227,227,227)" height="5" width="5" x="96" y="138" /><rect fill="rgb(248,248,248)" height="5" width="5" x="102" y="0" /><rect fill="rgb(240,240,240)" height="5" width="5" x="102" y="6" /><rect fill="rgb(248,248,248)" height="5" width="5" x="102" y="12" /><rect fill="rgb(240,240,240)" height="5" width="5" x="102" y="18" /><rect fill="rgb(227,227,227)" height="5" width="5" x="102" y="24" /><rect fill="rgb(248,248,248)" height="5" width="5" x="102" y="30" /><rect fill="rgb(240,240,240)" height="5" width="5" x="102" y="36" /><rect fill="rgb(248,248,248)" height="5" width="5" x="102" y="42" /><rect fill="rgb(236,236,236)" height="5" width="5" x="102" y="48" /><rect fill="rgb(240,240,240)" height="5" width="5" x="102" y="54" /><rect fill="rgb(240,240,240)" height="5" width="5" x="102" y="60" /><rect fill="rgb(236,236,236)" height="5" width="5" x="102" y="66" /><rect fill="rgb(240,240,240)" height="5" width="5" x="102" y="78" /><rect fill="rgb(227,227,227)" height="5" width="5" x="102" y="84" /><rect fill="rgb(240,240,240)" height="5" width="5" x="102" y="96" /><rect fill="rgb(236,236,236)" height="5" width="5" x="102" y="102" /><rect fill="rgb(248,248,248)" height="5" width="5" x="102" y="108" /><rect fill="rgb(240,240,240)" height="5" width="5" x="102" y="114" /><rect fill="rgb(248,248,248)" height="5" width="5" x="102" y="120" /><rect fill="rgb(240,240,240)" height="5" width="5" x="102" y="138" /><rect fill="rgb(240,240,240)" height="5" width="5" x="108" y="0" /><rect fill="rgb(236,236,236)" height="5" width="5" x="108" y="18" /><rect fill="rgb(236,236,236)" height="5" width="5" x="108" y="24" /><rect fill="rgb(240,240,240)" height="5" width="5" x="108" y="36" /><rect fill="rgb(236,236,236)" height="5" width="5" x="108" y="42" /><rect fill="rgb(227,227,227)" height="5" width="5" x="108" y="48" /><rect fill="rgb(240,240,240)" height="5" width="5" x="108" y="54" /><rect fill="rgb(240,240,240)" height="5" width="5" x="108" y="60" /><rect fill="rgb(227,227,227)" height="5" width="5" x="108" y="66" /><rect fill="rgb(227,227,227)" height="5" width="5" x="108" y="78" /><rect fill="rgb(240,240,240)" height="5" width="5" x="108" y="84" /><rect fill="rgb(248,248,248)" height="5" width="5" x="108" y="96" /><rect fill="rgb(240,240,240)" height="5" width="5" x="108" y="102" /><rect fill="rgb(227,227,227)" height="5" width="5" x="108" y="108" /><rect fill="rgb(236,236,236)" height="5" width="5" x="108" y="114" /><rect fill="rgb(248,248,248)" height="5" width="5" x="108" y="120" /><rect fill="rgb(248,248,248)" height="5" width="5" x="108" y="126" /><rect fill="rgb(227,227,227)" height="5" width="5" x="108" y="132" /><rect fill="rgb(236,236,236)" height="5" width="5" x="108" y="138" /><rect fill="rgb(248,248,248)" height="5" width="5" x="114" y="0" /><rect fill="rgb(227,227,227)" height="5" width="5" x="114" y="12" /><rect fill="rgb(227,227,227)" height="5" width="5" x="114" y="18" /><rect fill="rgb(240,240,240)" height="5" width="5" x="114" y="24" /><rect fill="rgb(236,236,236)" height="5" width="5" x="114" y="30" /><rect fill="rgb(248,248,248)" height="5" width="5" x="114" y="42" /><rect fill="rgb(236,236,236)" height="5" width="5" x="114" y="48" /><rect fill="rgb(240,240,240)" height="5" width="5" x="114" y="60" /><rect fill="rgb(240,240,240)" height="5" width="5" x="114" y="66" /><rect fill="rgb(248,248,248)" height="5" width="5" x="114" y="72" /><rect fill="rgb(248,248,248)" height="5" width="5" x="114" y="78" /><rect fill="rgb(236,236,236)" height="5" width="5" x="114" y="90" /><rect fill="rgb(227,227,227)" height="5" width="5" x="114" y="96" /><rect fill="rgb(227,227,227)" height="5" width="5" x="114" y="108" /><rect fill="rgb(227,227,227)" height="5" width="5" x="114" y="114" /><rect fill="rgb(236,236,236)" height="5" width="5" x="114" y="120" /><rect fill="rgb(236,236,236)" height="5" width="5" x="114" y="126" /><rect fill="rgb(248,248,248)" height="5" width="5" x="114" y="138" /><rect fill="rgb(236,236,236)" height="5" width="5" x="120" y="0" /><rect fill="rgb(236,236,236)" height="5" width="5" x="120" y="6" /><rect fill="rgb(227,227,227)" height="5" width="5" x="120" y="12" /><rect fill="rgb(227,227,227)" height="5" width="5" x="120" y="18" /><rect fill="rgb(240,240,240)" height="5" width="5" x="120" y="24" /><rect fill="rgb(248,248,248)" height="5" width="5" x="120" y="36" /><rect fill="rgb(236,236,236)" height="5" width="5" x="120" y="42" /><rect fill="rgb(240,240,240)" height="5" width="5" x="120" y="48" /><rect fill="rgb(240,240,240)" height="5" width="5" x="120" y="54" /><rect fill="rgb(248,248,248)" height="5" width="5" x="120" y="60" /><rect fill="rgb(248,248,248)" height="5" width="5" x="120" y="66" /><rect fill="rgb(248,248,248)" height="5" width="5" x="120" y="72" /><rect fill="rgb(236,236,236)" height="5" width="5" x="120" y="78" /><rect fill="rgb(248,248,248)" height="5" width="5" x="120" y="84" /><rect fill="rgb(227,227,227)" height="5" width="5" x="120" y="102" /><rect fill="rgb(236,236,236)" height="5" width="5" x="120" y="114" /><rect fill="rgb(227,227,227)" height="5" width="5" x="120" y="120" /><rect fill="rgb(240,240,240)" height="5" width="5" x="120" y="126" /><rect fill="rgb(236,236,236)" height="5" width="5" x="120" y="132" /><rect fill="rgb(236,236,236)" height="5" width="5" x="126" y="0" /><rect fill="rgb(227,227,227)" height="5" width="5" x="126" y="12" /><rect fill="rgb(240,240,240)" height="5" width="5" x="126" y="18" /><rect fill="rgb(227,227,227)" height="5" width="5" x="126" y="24" /><rect fill="rgb(227,227,227)" height="5" width="5" x="126" y="30" /><rect fill="rgb(240,240,240)" height="5" width="5" x="126" y="36" /><rect fill="rgb(227,227,227)" height="5" width="5" x="126" y="42" /><rect fill="rgb(227,227,227)" height="5" width="5" x="126" y="48" /><rect fill="rgb(227,227,227)" height="5" width="5" x="126" y="54" /><rect fill="rgb(240,240,240)" height="5" width="5" x="126" y="66" /><rect fill="rgb(227,227,227)" height="5" width="5" x="126" y="78" /><rect fill="rgb(248,248,248)" height="5" width="5" x="126" y="84" /><rect fill="rgb(227,227,227)" height="5" width="5" x="126" y="90" /><rect fill="rgb(227,227,227)" height="5" width="5" x="126" y="102" /><rect fill="rgb(236,236,236)" height="5" width="5" x="126" y="108" /><rect fill="rgb(236,236,236)" height="5" width="5" x="126" y="114" /><rect fill="rgb(248,248,248)" height="5" width="5" x="126" y="126" /><rect fill="rgb(240,240,240)" height="5" width="5" x="126" y="132" /><rect fill="rgb(240,240,240)" height="5" width="5" x="126" y="138" /><rect fill="rgb(236,236,236)" height="5" width="5" x="132" y="0" /><rect fill="rgb(248,248,248)" height="5" width="5" x="132" y="6" /><rect fill="rgb(248,248,248)" height="5" width="5" x="132" y="12" /><rect fill="rgb(240,240,240)" height="5" width="5" x="132" y="18" /><rect fill="rgb(248,248,248)" height="5" width="5" x="132" y="24" /><rect fill="rgb(240,240,240)" height="5" width="5" x="132" y="30" /><rect fill="rgb(248,248,248)" height="5" width="5" x="132" y="36" /><rect fill="rgb(248,248,248)" height="5" width="5" x="132" y="54" /><rect fill="rgb(240,240,240)" height="5" width="5" x="132" y="60" /><rect fill="rgb(236,236,236)" height="5" width="5" x="132" y="66" /><rect fill="rgb(240,240,240)" height="5" width="5" x="132" y="72" /><rect fill="rgb(248,248,248)" height="5" width="5" x="132" y="78" /><rect fill="rgb(227,227,227)" height="5" width="5" x="132" y="96" /><rect fill="rgb(248,248,248)" height="5" width="5" x="132" y="102" /><rect fill="rgb(236,236,236)" height="5" width="5" x="132" y="114" /><rect fill="rgb(240,240,240)" height="5" width="5" x="132" y="120" /><rect fill="rgb(240,240,240)" height="5" width="5" x="132" y="126" /><rect fill="rgb(248,248,248)" height="5" width="5" x="132" y="138" /><rect fill="rgb(240,240,240)" height="5" width="5" x="138" y="0" /><rect fill="rgb(240,240,240)" height="5" width="5" x="138" y="12" /><rect fill="rgb(227,227,227)" height="5" width="5" x="138" y="24" /><rect fill="rgb(248,248,248)" height="5" width="5" x="138" y="30" /><rect fill="rgb(248,248,248)" height="5" width="5" x="138" y="36" /><rect fill="rgb(236,236,236)" height="5" width="5" x="138" y="48" /><rect fill="rgb(248,248,248)" height="5" width="5" x="138" y="60" /><rect fill="rgb(236,236,236)" height="5" width="5" x="138" y="66" /><rect fill="rgb(227,227,227)" height="5" width="5" x="138" y="72" /><rect fill="rgb(236,236,236)" height="5" width="5" x="138" y="78" /><rect fill="rgb(240,240,240)" height="5" width="5" x="138" y="84" /><rect fill="rgb(248,248,248)" height="5" width="5" x="138" y="90" /><rect fill="rgb(248,248,248)" height="5" width="5" x="138" y="96" /><rect fill="rgb(240,240,240)" height="5" width="5" x="138" y="114" /><rect fill="rgb(240,240,240)" height="5" width="5" x="138" y="120" /><rect fill="rgb(236,236,236)" height="5" width="5" x="138" y="126" /></svg>