<?xml version="1.0" encoding="utf-8" ?>
<svg baseProfile="full" height="152px" version="1.1" viewBox="0,0,160,160" width="152px" xmlns="http://www.w3.org/2000/svg" xmlns:ev="http://www.w3.org/2001/xml-events" xmlns:xlink="http://www.w3.org/1999/xlink"><defs /><g fill="white"><polygon points="35,19 9,32 35,45" /><polygon points="38,19 64,32 38,45" /><polygon points="93,19 67,32 93,45" /><polygon points="96,19 122,32 96,45" /><polygon points="9,35 35,48 9,61" /><polygon points="64,35 38,48 64,61" /><polygon points="67,35 93,48 67,61" /><polygon points="122,35 96,48 122,61" /><polygon points="125,35 151,48 125,61" /><polygon points="35,51 9,64 35,77" /><polygon points="93,51 67,64 93,77" /><polygon points="151,51 125,64 151,77" /><polygon points="9,67 35,80 9,93" /><polygon points="67,67 93,80 67,93" /><polygon points="125,67 151,80 125,93" /><polygon points="35,83 9,96 35,109" /><polygon points="93,83 67,96 93,109" /><polygon points="151,83 125,96 151,109" /><polygon points="9,99 35,112 9,125" /><polygon points="125,99 151,112 125,125" /><polygon points="151,115 125,128 151,141" /></g></svg>