<?xml version="1.0" encoding="utf-8" ?>
<svg baseProfile="full" height="152px" version="1.1" viewBox="0,0,96,96" width="152px" xmlns="http://www.w3.org/2000/svg" xmlns:ev="http://www.w3.org/2001/xml-events" xmlns:xlink="http://www.w3.org/1999/xlink"><defs /><rect fill="#542437" height="96" width="96" x="0" y="0" /><g fill="white"><polygon points="24,16 8,24 24,32" /><polygon points="24,16 40,24 24,32" /><polygon points="56,16 40,24 56,32" /><polygon points="56,16 72,24 56,32" /><polygon points="8,24 24,32 8,40" /><polygon points="40,24 24,32 40,40" /><polygon points="40,24 56,32 40,40" /><polygon points="72,24 56,32 72,40" /><polygon points="72,24 88,32 72,40" /><polygon points="24,32 8,40 24,48" /><polygon points="56,32 40,40 56,48" /><polygon points="88,32 72,40 88,48" /><polygon points="8,40 24,48 8,56" /><polygon points="40,40 56,48 40,56" /><polygon points="72,40 88,48 72,56" /><polygon points="24,48 8,56 24,64" /><polygon points="56,48 40,56 56,64" /><polygon points="88,48 72,56 88,64" /><polygon points="8,56 24,64 8,72" /><polygon points="72,56 88,64 72,72" /><polygon points="88,64 72,72 88,80" /></g></svg>